<svg xmlns="http://www.w3.org/2000/svg" viewBox="0 0 100 100" fill="currentColor">
 <path d="m18.75 29.688h-9.375c-0.86328 0-1.5625-0.69922-1.5625-1.5625v-14.062c0-3.4492 2.8008-6.25 6.25-6.25s6.25 2.8008 6.25 6.25v14.062c0 0.86328-0.69922 1.5625-1.5625 1.5625z"/>
 <path d="m39.062 85.938v-4.6875c0-0.86328 0.69922-1.5625 1.5625-1.5625h50c0.86328 0 1.5625 0.69922 1.5625 1.5625v4.6875c0 3.4531-2.7969 6.25-6.25 6.25h-49.281c1.4922-1.6602 2.4062-3.8477 2.4062-6.25z"/>
 <path d="m79.688 7.8125h-58.656c1.4922 1.6602 2.4062 3.8477 2.4062 6.25v71.875c0 3.6562 3.1367 6.5781 6.8633 6.2188 3.25-0.30859 5.6367-3.2266 5.6367-6.4883v-7.543c0-0.86328 0.69922-1.5625 1.5625-1.5625h48.438v-62.5c0-3.4531-2.7969-6.25-6.25-6.25zm-31.652 48.762-5.5234 5.5234c-0.58594 0.58594-1.3828 0.91406-2.2109 0.91406s-1.625-0.32812-2.2109-0.91406l-3.3125-3.3164c-1.2188-1.2188-1.2188-3.1992 0-4.4219 1.2188-1.2188 3.1992-1.2188 4.418 0l1.1055 1.1055 3.3125-3.3125c1.2188-1.2188 3.1992-1.2188 4.418 0s1.2188 3.1992 0 4.4219zm0-15.625-5.5234 5.5234c-0.58594 0.58594-1.3828 0.91406-2.2109 0.91406s-1.625-0.32812-2.2109-0.91406l-3.3125-3.3164c-1.2188-1.2188-1.2188-3.1992 0-4.4219 1.2188-1.2188 3.1992-1.2188 4.418 0l1.1055 1.1055 3.3125-3.3125c1.2188-1.2188 3.1992-1.2188 4.418 0s1.2188 3.1992 0 4.4219zm0-15.625-5.5234 5.5234c-0.58594 0.58594-1.3828 0.91406-2.2109 0.91406s-1.625-0.32812-2.2109-0.91406l-3.3125-3.3164c-1.2188-1.2188-1.2188-3.1992 0-4.4219 1.2188-1.2188 3.1992-1.2188 4.418 0l1.1055 1.1055 3.3125-3.3125c1.2188-1.2188 3.1992-1.2188 4.418 0s1.2188 3.1992 0 4.4219zm25.402 35.613h-17.188c-1.7266 0-3.125-1.3984-3.125-3.125s1.3984-3.125 3.125-3.125h17.188c1.7266 0 3.125 1.3984 3.125 3.125s-1.3984 3.125-3.125 3.125zm0-15.625h-17.188c-1.7266 0-3.125-1.3984-3.125-3.125s1.3984-3.125 3.125-3.125h17.188c1.7266 0 3.125 1.3984 3.125 3.125s-1.3984 3.125-3.125 3.125zm0-15.625h-17.188c-1.7266 0-3.125-1.3984-3.125-3.125s1.3984-3.125 3.125-3.125h17.188c1.7266 0 3.125 1.3984 3.125 3.125s-1.3984 3.125-3.125 3.125z"/>
</svg>
